<?xml version="1.0" encoding="UTF-8"?>
<svg id="Layer_1" data-name="Layer 1" xmlns="http://www.w3.org/2000/svg" viewBox="0 0 1761.9199696 291.9258986">
  <g>
    <polygon points="202.9011321 78.1006901 202.9011321 280.9927094 281.0009938 202.9016844 281.0009938 .0008284 78.0998617 .0008284 0 78.1006901 202.9011321 78.1006901" fill="#44a754" stroke-width="0"/>
    <polygon points="148.8564255 132.1409784 148.8564255 280.9935378 91.5592608 280.9935378 91.5592608 189.4378669 .0038661 189.4378669 .0038661 132.1409784 148.8564255 132.1409784" fill="#44a754" stroke-width="0"/>
    <path d="m518.8010168,91.4559819c-10.4239926-19.3645241-25.9611208-32.1051129-46.6102802-38.2129296-20.8667631-5.6193129-40.7736397-2.8503881-59.73996,8.2794359-.7964076.4796671-1.5745895,1.0046224-2.3527715,1.6107648-.4070405.1991019-.7511195.434379-1.0499105.7420067V0c-12.1797345,0-22.6125637,4.3252886-31.2907557,12.9667531-8.6411883,8.6417406-12.9573641,19.074846-12.9573641,31.2907557v123.3258176c0,12.1797345,4.3161758,22.6128399,12.9573641,31.2545805,8.678192,8.6776397,19.1110212,12.9940916,31.2907557,12.9940916v-11.5191911c5.9178277,3.7462086,12.3967859,6.6507216,19.4909994,8.7320406,6.6783362,1.8369291,13.419634,2.7871505,20.1879941,2.7871505,13.6908102,0,26.8028165-3.7373719,39.3984282-11.2024506,18.3781274-11.3200892,30.6755004-27.4901461,36.8738934-48.555735,5.709613-21.2285156,3.6285701-41.4344592-6.198393-60.6178309m-36.4392382,48.6913232c-2.8503881,9.9175392-8.4970396,17.4914198-16.9487911,22.7034161-8.0712211,4.7326053-16.3964974,5.908991-24.9471095,3.5471067-9.0487811-2.7689248-15.6453779-8.2976616-19.8262417-16.6858993-4.1803115-8.3520625-5.0126182-17.5455446-2.4521843-27.5716095,2.9680267-9.9354887,8.6146782-17.5184822,16.9758535-22.7304785,5.5013982-3.2303662,11.120435-4.8773063,16.8306003-4.8773063,2.7327496,0,5.5013982.4073167,8.2341478,1.1854986,8.5605534,2.5698229,15.0754107,7.9809211,19.4821627,16.2515203,4.5155538,8.7320406,5.420211,18.1246246,2.6515624,28.1777519" stroke-width="0"/>
    <path d="m692.1157718,113.5830794v-.434379c-4.3161758-19.7897903-14.4601554-35.8695472-30.3949352-48.2572203-6.4789582-4.9043687-13.6272964-8.6505773-21.3732165-11.2115635-5.420211-1.7554657-10.9221616-2.8774505-16.550035-3.4021296-21.5184698-1.6742786-40.5930396,4.7323291-57.2154252,19.1924846-15.9441688,14.4598793-24.9929499,32.6477415-27.1463433,54.5729756-1.7828043,21.834658,3.917972,41.3168206,17.1200022,58.4279861,13.7631607,17.1202784,31.3813319,26.8025404,52.8175099,29.0738485,6.9677382.57908,13.7907754.2352771,20.477396-1.0316848,10.7233358-2.1625062,20.1156436-5.9992911,28.187417-11.5280278,8.668803-6.8862748,11.609215-14.9848345,8.8405663-24.3141808-2.7421386-9.3743583-9.6187483-14.4689921-20.631486-15.3648126h-2.2169072c-4.1444124.1176386-7.9806449,1.3031371-11.5009654,3.5471067-6.0172406,3.6285701-12.4150116,5.1578715-19.1833717,4.5787915-8.8405663-.8867076-16.2241817-4.9769953-22.1331727-12.2429721-1.9545676-2.5609862-3.5473829-5.2755101-4.7237686-8.1258982.3982038,0,4.7867301.0270624,13.1931935.0905762,8.4153001.0541248,18.5592798.0814633,30.4037719.144701,11.8362077.0544009,23.2195346.0544009,34.1411438.0544009,9.1664197-.2896781,16.5052992-3.7191462,22.079048-10.315743,5.5290129-6.5965968,7.4835806-14.4054783,5.8095781-23.4542594m-105.4814821,1.7551896c2.1533934-5.0128944,5.2749578-9.2749454,9.3017316-12.8220521,4.7326053-4.1170739,9.9446016-6.7412977,15.6183155-7.8091577,2.769201-.4885038,5.5290129-.6061424,8.2705992-.3164643,12.9938155,1.791641,22.0702113,8.8223406,27.2910442,21.1288265l-60.4816905-.1811524Z" stroke-width="0"/>
    <path d="m864.8318403,164.0370481c-3.6285701-3.6282939-7.8364963-5.8454772-12.596164-6.6236592-4.7778934-.8143572-9.3652454.0273385-13.7996121,2.4974724-9.5370088,5.3025725-19.7080508,7.9538587-30.5396362,7.9538587-18.5046027,0-33.8241272-6.8498235-46.0220874-20.5676961-12.2156336-13.7181488-17.3099913-30.3767095-15.3554236-49.9403355,5.0126182-26.4496247,20.3774309-43.5607902,46.0491498-51.3428855,11.4921287-2.7689248,22.6490151-2.4430715,33.4806005.8958205,10.5145688,2.7327496,18.9298689-.1988258,25.2100013-8.8496792l.4611653-.7420067c3.7191462-6.288693,4.4338144-12.6500126,2.126331-19.0475075-2.2980944-6.3704325-6.9130611-10.8133597-13.7902231-13.2564312C824.1123254.0008284,807.6070261-1.184394,790.4870239,1.4668922c-25.4635042,4.6055777-46.3573297,16.3420964-62.6085738,35.1816653-16.2882478,18.8484056-24.9841132,41.1809564-26.051697,67.0512249.2082148,30.5669747,10.5145688,56.2745927,30.9742914,77.0775659,20.4591703,20.8032493,45.496856,31.2001795,75.0953836,31.2001795,18.495766,0,35.8151463-4.5243905,51.9128527-13.5640588,6.397771-3.8367848,10.0622402-9.1664197,11.0127377-16.025356.9228829-6.8318739-1.0681361-12.9305778-5.9901782-18.351065" stroke-width="0"/>
    <path d="m1003.7701743,73.9032575c-15.8171412-15.8444798-34.8646487-23.7621632-57.0883976-23.7621632-22.3237141,0-41.3982839,7.9176835-57.2518766,23.7621632-15.8171412,15.8262541-23.7348247,34.8919872-23.7348247,57.224538,0,22.2508113,7.9176835,41.2624197,23.7348247,57.1068994,15.8535926,15.8262541,34.9281625,23.7439375,57.2518766,23.7439375,22.2237489,0,41.2712564-7.9176835,57.0883976-23.7439375,15.8447559-15.8444798,23.7712761-34.8560881,23.7712761-57.1068994,0-22.3325508-7.9265202-41.3982839-23.7712761-57.224538m-31.263141,83.1309818c-7.1759529,7.121552-15.7906311,10.6868844-25.8252566,10.6868844-10.1351429,0-18.7857202-3.5653324-25.9611208-10.6868844-7.1665639-7.1483382-10.7680716-15.7627403-10.7680716-25.9064438,0-10.1075282,3.6015077-18.7854441,10.7680716-25.9611208,7.1754006-7.1665639,15.8259779-10.7769083,25.9611208-10.7769083,10.0346255,0,18.6493037,3.6103444,25.8252566,10.7769083,7.1754006,7.1756768,10.7675193,15.8535926,10.7675193,25.9611208,0,10.1437035-3.5921187,18.7581055-10.7675193,25.9064438" stroke-width="0"/>
    <path d="m1304.4930262,98.2259989c-5.6737139-10.8945469-11.6368297-19.219547-17.9169621-24.9203232-16.4235598-14.8489702-35.5528067-22.2778737-57.3965775-22.2778737-22.6219527,0-41.3253812,7.2933154-56.0749385,21.8437708-16.215345-14.5504555-35.0910891-21.8437708-56.645458-21.8437708-11.5009654,0-22.1331727,2.0178053-31.8695596,6.0534158v-6.632772c-12.1797345,0-22.5860536,4.2711639-31.1731171,12.8223283-8.6146782,8.5600011-12.9126283,18.9298689-12.9126283,31.1187162v73.195493c0,12.1797345,4.3250125,22.6128399,12.9667531,31.2545805,8.6505773,8.6776397,19.0745699,12.9940916,31.2995924,12.9940916v-91.1665799c0-10.0260649,3.8820729-16.794425,11.7274059-20.2782941,7.8000449-3.4838691,14.4601554-5.2481715,19.9615536-5.2481715,10.4333816,0,19.3915865,3.4021296,26.8569413,10.1707659,8.4694249,8.180023,12.6773511,20.0791922,12.6773511,35.7063444v26.5672633c0,12.1797345,4.3161758,22.6128399,12.9396907,31.2545805,8.5870635,8.6776397,19.0386708,12.9940916,31.3448805,12.9940916v-70.8159353c0-8.9399792-.8323067-16.9753012-2.5063091-24.0333395,1.6740024-8.3611754,6.0172406-14.089014,13.111454-17.2017417,7.0853767-3.0856653,13.1661311-4.6420291,18.2963879-4.6420291,10.4245449,0,19.3556874,3.4021296,26.8569413,10.1707659,8.4335258,8.180023,12.6773511,20.0791922,12.6773511,35.7063444v26.5672633c0,12.1797345,4.3161758,22.6128399,12.9849788,31.2545805,8.6599663,8.6776397,19.0839589,12.9940916,31.27253,12.9940916v-70.8159353c0-17.6087822-2.8227734-31.8698357-8.4782616-42.7917211" fill="#44a754" stroke-width="0"/>
    <path d="m1472.4262307,63.3610741c-8.678192-8.614402-19.0751222-12.9123521-31.2907557-12.9123521v10.1707659c-4.9043687-2.8503881-10.2345558-5.0672953-15.9441688-6.6509977-21.2285156-5.3025725-40.9365664-2.6239477-59.1517671,8.035322-18.1793017,10.6957211-30.6302124,27.0016423-37.3079963,48.9268764-5.7101653,21.2373523-3.6920838,41.4344592,6.044303,60.6266676,10.4333816,19.3915865,26.0240823,32.1233386,46.7730035,38.2040929,6.6779873,1.8731043,13.3745493,2.7959872,20.0523332,2.7959872,14.0619516,0,27.2639818-3.7188701,39.5342925-11.2024506l-54.7544041-37.1180072-.1629267-.1176386c-5.076132-2.9680267-9.1393573-7.3474401-12.1885712-13.0843917-4.5243905-8.8408425-5.4743358-18.2334264-2.8051-28.1689152,2.5427605-8.3611754,6.9495125-15.0118969,13.2020302-19.9706665,6.2525177-4.985832,13.1120063-7.4653549,20.5768089-7.4653549,2.7421386,0,5.5019505.3438029,8.2705992,1.0407976,9.0399444,2.8503881,15.6365412,8.4694249,19.8168527,16.8214874,2.769201,5.5378496,4.0720619,11.473903,3.773271,17.7537593l.0635138-.0270624,4.2079262,70.3359921v10.4786697c12.2156336,0,22.6125637-4.3164519,31.2907557-12.9940916,8.6411883-8.6414644,12.9667531-19.074846,12.9667531-31.2545805v-73.0507921c0-12.1885712-4.3255648-22.5857775-12.9667531-31.1731171" fill="#44a754" stroke-width="0"/>
    <path d="m1646.3126097,90.8495633c-9.9357649-18.586066-25.3547023-31.1187162-46.3026526-37.6065111-20.8667631-5.6193129-40.7736397-2.8503881-59.7670224,8.2794359-1.2581252.7693452-2.4974724,1.5475271-3.6832471,2.3527715v-13.7360983c-12.097995,0-22.4408004,4.3164519-31.0554786,12.9035154-8.5959002,8.6146782-12.9126283,19.0207212-12.9126283,31.2092924v139.7132021c0,12.1888473,4.3167281,22.5948903,12.9943678,31.2092924,8.6417406,8.5873396,19.0745699,12.9035154,31.2636933,12.9035154v-77.7651717c5.9990149,3.7462086,12.442074,6.5965968,19.3369094,8.5600011,6.7683601,1.8731043,13.5096579,2.8233257,20.1968308,2.8233257,17.1111655,0,32.7659324-5.3931486,46.9361336-16.1700569,14.1525278-10.7771844,23.9794908-25.2370637,29.480889-43.4522645,5.6102001-22.2149122,3.4568067-42.6108449-6.4877949-61.2242495m-36.1316106,49.2977417c-3.0586029,9.9175392-8.4970396,17.3467188-16.369435,22.2693132-7.8906211,4.9043687-16.4506222,6.2254554-25.6717189,3.9812096-8.4694249-2.4521843-14.9572198-7.8088816-19.4816104-16.0794808-4.4338144-8.8496792-5.3296349-18.2966641-2.6421734-28.322729,2.9315753-9.8540254,8.5782268-17.3737812,16.9388499-22.5857775,5.5378496-3.2303662,11.1209873-4.8773063,16.8311526-4.8773063,2.759812,0,5.5013982.4073167,8.2705992,1.1854986,9.0487811,2.7689248,15.6359889,8.324724,19.7621756,16.6858993,4.11735,8.3520625,4.9225944,17.5999455,2.3621604,27.7433728" fill="#44a754" stroke-width="0"/>
    <path d="m1417.9650946,123.6975113c-1.7469052-3.5106553-4.5243905-5.8543139-8.3252763-7.0580382-1.15816-.2894019-2.3163201-.4341029-3.4656434-.4341029-3.1309534,0-6.0172406,1.0496343-8.6323516,3.1306772-2.6245,2.0813191-4.4702658,4.8773063-5.5378496,8.3882377-1.1128719,4.1626381-.7240571,8.1076725,1.1763857,11.8177059,1.8546025,3.4656434,4.5785153,5.7369515,8.1617973,6.8139244,3.8456215.9499453,7.4112301.3799781,10.7139468-1.701341,3.3027167-2.0901558,5.5919744-5.2119963,6.867773-9.3834711,1.1128719-4.2076501.7964076-8.0626606-.958782-11.5735921" fill="#44a754" stroke-width="0"/>
  </g>
  <g>
    <path d="m1551.5801259,290.9698439v-69.6347656h20.5644531c6.1542969,0,11.6132812,1.3710938,16.3808594,4.1132812,4.765625,2.7421875,8.4570312,6.6318359,11.0722656,11.6689453,2.6132812,5.0380859,3.921875,10.8085938,3.921875,17.3134766v3.4912109c0,6.5996094-1.3164062,12.4033203-3.9453125,17.4082031-2.6308594,5.0068359-6.3789062,8.8652344-11.2402344,11.5742188-4.8632812,2.7109375-10.4335938,4.0654297-16.7148438,4.0654297h-20.0390625Zm12.0996094-59.8789062v50.2177734h7.890625c6.3457031,0,11.2167969-1.984375,14.6113281-5.9541016,3.3964844-3.9697266,5.125-9.6679688,5.1894531-17.0976562v-3.8740234c0-7.5566406-1.6425781-13.3271484-4.9257812-17.3134766-3.2851562-3.9853516-8.0507812-5.9785156-14.3007812-5.9785156h-8.4648438Z" stroke-width="0"/>
    <path d="m1612.2715321,264.6173049c0-5.0693359,1.0039062-9.6367188,3.0117188-13.7021484,2.0097656-4.0654297,4.8320312-7.1894531,8.4667969-9.3740234,3.6347656-2.1835938,7.8105469-3.2753906,12.5292969-3.2753906,6.9824219,0,12.6503906,2.2470703,17.0019531,6.7431641,4.3535156,4.4951172,6.703125,10.4580078,7.0546875,17.8867188l.0488281,2.7265625c0,5.1015625-.9804688,9.6611328-2.9414062,13.6777344-1.9609375,4.0175781-4.7675781,7.1259766-8.4179688,9.3261719s-7.8671875,3.2998047-12.6503906,3.2998047c-7.3007812,0-13.1445312-2.4306641-17.5273438-7.2929688-4.3847656-4.8623047-6.5761719-11.3427734-6.5761719-19.4414062v-.5742188Zm11.6210938,1.0048828c0,5.3251953,1.0996094,9.4931641,3.3007812,12.5058594,2.1992188,3.0136719,5.2597656,4.5205078,9.1816406,4.5205078s6.9746094-1.53125,9.1582031-4.5917969,3.2773438-7.5400391,3.2773438-13.4394531c0-5.2285156-1.125-9.3740234-3.3730469-12.4345703-2.2460938-3.0605469-5.3007812-4.5908203-9.1582031-4.5908203-3.7949219,0-6.8066406,1.5058594-9.0390625,4.5195312-2.2324219,3.0126953-3.3476562,7.5166016-3.3476562,13.5107422Z" stroke-width="0"/>
    <path d="m1691.4707509,282.6485549c2.9023438,0,5.3085938-.8447266,7.2226562-2.5351562,1.9121094-1.6894531,2.9335938-3.7783203,3.0605469-6.265625h10.953125c-.1289062,3.2207031-1.1328125,6.2255859-3.0136719,9.015625s-4.4316406,4.9980469-7.6523438,6.6240234-6.6953125,2.4384766-10.4257812,2.4384766c-7.2382812,0-12.9785156-2.3427734-17.2167969-7.0302734-4.2421875-4.6865234-6.3613281-11.1591797-6.3613281-19.4169922v-1.1962891c0-7.8740234,2.1035156-14.1796875,6.3125-18.9150391,4.2089844-4.734375,9.9472656-7.1015625,17.2167969-7.1015625,6.1542969,0,11.1679688,1.7929688,15.0429688,5.3798828,3.8730469,3.5869141,5.90625,8.2978516,6.0976562,14.1328125h-10.953125c-.1269531-2.9648438-1.140625-5.4042969-3.0371094-7.3173828s-4.3125-2.8691406-7.2460938-2.8691406c-3.7617188,0-6.6640625,1.3623047-8.703125,4.0888672-2.0410156,2.7255859-3.078125,6.8632812-3.109375,12.4111328v1.8652344c0,5.6113281,1.0117188,9.796875,3.0371094,12.5537109,2.0234375,2.7587891,4.9492188,4.1376953,8.7753906,4.1376953Z" stroke-width="0"/>
    <path d="m1750.488329,276.9092971c0-2.0722656-.8535156-3.6503906-2.5585938-4.7353516-1.7050781-1.0830078-4.5351562-2.0400391-8.4882812-2.8691406-3.9550781-.8291016-7.2539062-1.8808594-9.9003906-3.1572266-5.8027344-2.8046875-8.7050781-6.8701172-8.7050781-12.1953125,0-4.4638672,1.8808594-8.1943359,5.6445312-11.1914062,3.7617188-2.9960938,8.5449219-4.4951172,14.3476562-4.4951172,6.1855469,0,11.1835938,1.5302734,14.9941406,4.5908203,3.8085938,3.0605469,5.7148438,7.0302734,5.7148438,11.9091797h-11.6230469c0-2.2314453-.828125-4.0898438-2.4863281-5.5722656s-3.8574219-2.2236328-6.5996094-2.2236328c-2.5507812,0-4.6328125.5898438-6.2421875,1.7695312s-2.4140625,2.7578125-2.4140625,4.734375c0,1.7861328.7480469,3.1728516,2.2480469,4.1611328,1.4980469.9882812,4.5253906,1.984375,9.0859375,2.9892578,4.5585938,1.0039062,8.1386719,2.2001953,10.7382812,3.5869141,2.5976562,1.3867188,4.5253906,3.0537109,5.7851562,4.9980469,1.2597656,1.9453125,1.890625,4.3037109,1.890625,7.078125,0,4.6552734-1.9296875,8.4257812-5.7871094,11.3105469-3.859375,2.8867188-8.9121094,4.328125-15.1621094,4.328125-4.2402344,0-8.0175781-.7646484-11.3339844-2.2949219s-5.8984375-3.6347656-7.7480469-6.3134766c-1.8496094-2.6777344-2.7734375-5.5634766-2.7734375-8.65625h11.2871094c.1582031,2.7421875,1.1953125,4.8544922,3.1074219,6.3369141,1.9140625,1.4824219,4.4492188,2.2236328,7.6054688,2.2236328,3.0605469,0,5.3867188-.5810547,6.9824219-1.7451172,1.59375-1.1640625,2.390625-2.6865234,2.390625-4.5673828Z" stroke-width="0"/>
  </g>
</svg>